<svg width="370" height="720" viewBox="0 0 370 720" fill="none" xmlns="http://www.w3.org/2000/svg">
<g clip-path="url(#clip0_1_8217)">
<path fill-rule="evenodd" clip-rule="evenodd" d="M98.095 1.23948C95.1109 3.40421 89.544 10.2395 87.5715 14.1603C85.7035 17.8717 84.756 23.0522 82.1765 43.6695C81.8899 45.9592 80.8547 51.5821 79.8735 56.1648C75.5879 76.1945 72.2026 102.914 71.9227 118.935L71.8148 125.244L70.5672 124.359C67.128 121.917 61.615 114.484 58.6748 108.321L57.0833 104.984L58.0813 100.939C60.3843 91.6177 60.4113 82.9757 58.1589 75.5731C57.6194 73.8068 55.0433 68.1975 52.4268 63.1082C49.8136 58.0188 46.4856 51.143 45.0357 47.8369C43.5858 44.5273 41.6807 40.2687 40.804 38.3742C38.1504 32.6331 34.2896 29.8976 32.1654 32.2549C30.5705 34.0211 31.5281 43.3993 33.9423 49.6605C34.5358 51.2038 36.1576 55.0706 37.5401 58.2519C40.7332 65.587 45.2144 78.6327 47.541 87.3626C49.7765 95.7581 51.078 99.3783 54.7027 107.331C58.4961 115.649 60.5461 118.604 66.7335 124.67L71.9227 129.759L72.2329 137.627C73.0051 157.242 74.8192 172.435 78.5889 190.851C81.5021 205.099 86.361 229.877 86.361 230.498C86.361 230.863 85.2786 230.12 75.1462 222.818C69.4714 218.729 65.1723 214.605 62.1242 210.327L60.0201 207.372L60.7822 202.812C61.8713 196.312 61.878 185.002 60.7923 180.294C58.8501 171.861 54.5578 164.259 42.6754 148.198C39.8194 144.341 36.3903 139.34 35.055 137.091C32.2193 132.309 28.716 128.6 27.03 128.6C25.2362 128.6 24.862 129.864 25.4318 134.007C26.0691 138.678 27.5426 143.034 31.0088 150.542C34.3436 157.752 34.8224 158.951 37.6345 167.039C40.4028 175.002 43.4914 182.34 48.2929 192.36C54.46 205.23 57.4609 210.148 63.4088 217.125C65.4623 219.533 65.5601 219.745 64.417 219.31C63.719 219.046 61.0452 218.617 58.4758 218.364C55.9031 218.107 48.8121 217.27 42.7159 216.503C29.4274 214.832 17.7136 214.285 13.2561 215.129C8.97383 215.939 5.61548 218.026 4.16559 220.782C2.7393 223.484 3.14729 225.152 5.5413 226.405C6.93387 227.138 7.89822 227.215 12.693 226.993C19.9289 226.655 25.0305 227.229 34.7549 229.482C39.1383 230.498 45.3594 231.636 48.5829 232.014C51.8063 232.393 56.1021 233.125 58.1252 233.645C63.9517 235.135 67.0808 234.746 70.0042 232.173C71.6631 230.718 73.4299 227.793 73.4299 226.513C73.4299 225.733 84.9414 233.227 86.6543 235.118C87.386 235.928 88.3031 239.143 90.2588 247.775C91.702 254.141 94.3219 264.867 96.0786 271.611C100.83 289.847 105.264 309.752 104.7 310.313C104.613 310.404 102.802 308.138 100.681 305.277C95.556 298.354 82.4496 285.241 77.1187 281.692C70.4863 277.281 64.4541 275.248 57.7273 275.16C53.0135 275.1 51.0207 275.718 48.9167 277.892C47.5207 279.338 47.3353 279.817 47.3353 281.969C47.3353 285.292 48.4311 286.778 55.1343 292.525C62.6367 298.959 65.0071 300.455 74.3538 304.649C88.3571 310.931 93.3845 313.531 96.291 315.99C97.8151 317.276 100.428 319.049 102.094 319.924C103.76 320.799 105.392 321.842 105.719 322.241C106.612 323.318 108.079 340.774 108.096 350.531C108.103 355.117 107.897 361.155 107.641 363.951C107.384 366.748 106.75 374.785 106.231 381.82C105.712 388.851 104.677 399.293 103.928 405.02C102.691 414.497 102.05 417.479 96.8137 438.052C92.0627 456.724 78.9261 505.351 76.5118 513.199C75.7532 515.665 75.8408 515.918 74.3606 506.806C70.9078 485.534 63.6449 469.162 51.4051 455.052C40.4398 442.418 32.5531 433.219 31.5281 431.879C30.4895 430.518 30.439 430.241 30.9448 428.637C31.2482 427.674 32.3137 425.695 33.3152 424.24C37.2906 418.454 38.6326 413.389 38.1942 405.855C37.7896 398.857 36.2756 395.646 33.3893 395.646C26.966 395.646 22.4679 404.014 22.5017 415.891C22.5084 418.755 22.4646 421.099 22.4005 421.099C22.3398 421.099 19.5378 418.073 16.1761 414.372L10.0596 407.644L12.8076 401.066C14.3182 397.449 16.5301 391.883 17.7204 388.702C18.9107 385.518 20.9203 381.043 22.1847 378.75C27.6437 368.879 28.453 366.221 27.6707 360.703C26.5512 352.77 21.1529 347.481 17.5788 350.818C16.0109 352.283 15.3298 354.273 13.8394 361.787C13.101 365.518 11.5465 371.901 10.3833 375.974C7.67905 385.467 6.90689 389.806 6.58657 397.381C6.44495 400.752 6.28648 403.511 6.23253 403.511C5.99313 403.511 -4.37866 392.724 -7.28181 389.462L-10.512 385.828L-8.50242 382.289C-6.19946 378.243 -6.16235 378.098 -3.72114 362.553C-1.22261 346.674 -0.740433 341.22 -1.09785 332.933C-1.56654 322.052 -2.89841 317.07 -6.7558 311.805C-10.9672 306.057 -15.9474 305.683 -17.6131 310.991C-18.7899 314.73 -18.4089 366.109 -17.1343 375.501C-16.9455 376.909 -16.9118 378.044 -17.0568 378.027C-17.4108 377.987 -28.0524 365.528 -31.7647 360.814C-33.3529 358.794 -35.902 355.286 -37.4227 353.023C-40.1134 349.021 -40.1674 348.879 -39.3413 348.052C-38.006 346.711 -37.362 342.088 -37.3519 333.719C-37.3418 325.013 -38.6501 315.611 -41.098 306.784C-43.4178 298.412 -43.7921 296.618 -45.2555 286.882C-47.9058 269.247 -48.7217 266.542 -51.8474 264.992C-53.2703 264.283 -53.8267 264.235 -55.4587 264.674C-59.4813 265.762 -63.9422 272.124 -65.8406 279.48C-66.4104 281.698 -66.5554 283.64 -66.3834 286.882C-66.1778 290.81 -65.8203 292.221 -63.0622 300.073C-61.3628 304.909 -59.5015 310.221 -58.9249 311.876C-58.3483 313.531 -57.4177 317.03 -56.858 319.657C-55.8093 324.564 -53.0984 332.953 -51.082 337.519C-50.4549 338.944 -50.0368 340.106 -50.1548 340.106C-50.2728 340.106 -51.1461 339.596 -52.0936 338.967C-57.4548 335.421 -73.1676 333.027 -79.9113 334.726C-90.1718 337.306 -96.9998 344.114 -96.9998 351.75C-96.9998 355.015 -95.7623 356.856 -92.4983 358.457C-88.823 360.26 -81.4286 360.507 -72.2909 359.132C-68.7336 358.599 -63.5376 357.943 -60.7424 357.677C-57.9471 357.41 -53.9987 356.893 -51.9688 356.528C-49.9356 356.167 -46.5671 355.897 -44.4833 355.934L-40.6934 355.995L-39.2098 358.116C-36.7922 361.56 -31.2016 368.497 -24.077 376.892C-20.405 381.222 -17.1377 385.075 -16.8207 385.457C-16.3049 386.071 -18.2976 386.149 -34.3341 386.149H-52.4308L-55.4317 387.719C-61.8315 391.059 -66.8285 396.074 -68.1537 400.492C-69.8969 406.29 -64.4682 407.952 -52.9062 405.162C-48.5262 404.105 -38.4612 402.44 -25.6887 400.664C-20.2162 399.904 -11.8911 400.36 -8.88007 401.586C-6.14213 402.7 -3.72115 402.869 -2.83098 402.001C-2.34881 401.535 -1.43841 402.271 1.90308 405.821C11.0037 415.486 20.02 425.648 30.5132 438.065C36.5757 445.238 41.7481 451.236 42.0078 451.398C42.2674 451.557 42.6889 452.077 42.9418 452.553C43.3902 453.398 43.343 453.397 40.9557 452.557C32.8532 449.703 17.3798 448.43 9.71564 449.987C0.699333 451.817 -5.05302 457.318 -5.07663 464.133C-5.08675 467.325 -3.87625 469.469 -1.50585 470.462C1.40405 471.678 9.14918 471.36 18.4689 469.641C24.6967 468.493 35.5878 467.456 38.5449 467.733C39.8093 467.852 42.2 467.72 43.8589 467.443C45.5145 467.166 48.5862 466.835 50.6801 466.707L54.4903 466.477L56.3448 469.354C59.1502 473.704 63.9416 483.694 65.7185 488.894C69.2118 499.117 72.1453 514.246 72.2228 522.449L72.2768 527.772L68.4295 539.088C66.3154 545.312 61.1935 560.202 57.0495 572.177C47.2645 600.44 38.9023 627.028 36.6634 636.994C35.7833 640.905 32.9544 658.901 32.017 666.547L31.2314 672.96L29.8523 670.249C29.097 668.759 26.9592 664.004 25.1081 659.685L21.743 651.833L23.2704 650.428C24.11 649.658 24.9226 648.611 25.0744 648.101C25.9072 645.325 28.2405 631.682 28.6654 627.086C29.5252 617.839 27.9236 597.06 25.8297 590.265C24.7203 586.665 18.8567 571.444 14.8611 561.786C9.16603 548.021 -2.83772 522.25 -7.30541 514.199C-20.4657 490.478 -28.1569 476.757 -30.6992 472.468C-36.5224 462.634 -42.4973 449.524 -50.5864 428.795C-54.4876 418.812 -56.74 415.648 -59.0632 416.894C-60.213 417.509 -60.2905 417.799 -61.1975 425.006C-62.0102 431.443 -62.0911 440.034 -61.4235 448.828C-60.9447 455.096 -57.2694 477.892 -55.1485 487.736C-54.5179 490.664 -53.1759 497.85 -52.1678 503.703C-49.3287 520.156 -48.28 523.506 -39.9617 542.58C-34.8837 554.221 -33.9733 556.025 -27.4016 567.476C-20.6478 579.242 -16.9995 585.216 -10.6166 594.963C-4.32808 604.564 1.0871 615.185 8.22865 631.918C16.5402 651.401 24.1067 667.76 27.5324 673.673L30.5941 678.958L30.2906 681.957C29.4544 690.13 29.1307 702.382 29.5488 710.055C30.004 718.43 30.412 720.237 31.7776 719.977C32.4385 719.848 32.597 718.94 32.8498 713.817C33.0083 710.51 33.1668 705.364 33.1938 702.382L33.2477 696.958L36.0261 691.504C37.5569 688.505 40.2173 684.074 41.9403 681.656L45.0761 677.259L46.9947 677.405C49.1999 677.57 65.6612 674.382 71.7676 672.606C82.0113 669.627 103.308 665.956 115.922 664.997C124.291 664.362 125.693 664.139 139.275 661.323C165.592 655.862 174.295 653.184 189.128 645.977C195.292 642.982 217.182 630.574 221.575 627.586C226.768 624.05 236.651 614.205 241.166 608.069C246.972 600.174 249.305 595.827 261.181 570.813C270.986 550.158 273.387 545.478 278.954 536.127C285.664 524.857 289.518 517.08 290.536 512.76C290.789 511.69 290.708 510.677 290.283 509.664C287.994 504.172 277.79 510.271 256.099 530.092C252.542 533.344 245.579 539.558 240.626 543.901C235.673 548.247 229.121 554.204 226.07 557.139C220.267 562.728 197.291 582.032 189.03 588.262C178.405 596.28 163.29 605.796 147.314 614.536C137.65 619.822 116.165 629.483 102.529 634.677C90.9129 639.101 85.663 641.54 77.0749 646.491C63.3279 654.417 56.2808 659.557 49.3752 666.686C44.8637 671.346 39.9004 677.817 36.4577 683.534L34.1042 687.441L34.3975 684.432C36.0531 667.358 39.9341 644.907 43.6364 631.017C45.9461 622.337 47.6826 618.619 53.9104 609.028C61.2812 597.668 73.3153 583.183 75.1631 583.447C75.7026 583.524 76.9366 583.183 77.9044 582.69C78.8721 582.197 81.31 581.333 83.3196 580.772C87.9794 579.465 91.5401 579.644 100.91 581.657C107.647 583.102 108.092 583.139 117.075 582.97C125.36 582.815 126.59 582.69 128.978 581.745C133.398 579.995 135.782 577.381 135.782 574.285C135.782 571.579 132.339 569.313 125.97 567.821C115.369 565.339 102.158 565.406 93.253 567.993C91.2602 568.57 89.7328 568.881 89.8542 568.682C89.9756 568.486 97.1913 562.931 105.887 556.342C114.58 549.753 125.124 541.706 129.315 538.464L136.939 532.564L141.787 532.776C145.776 532.952 147.25 533.236 150.099 534.377C159.84 538.274 163.013 538.747 170.873 537.471C175.951 536.643 180.122 535.303 190.976 531.003C208.776 523.955 214.299 519.852 214.299 513.679C214.299 509.393 212.1 507.479 207.248 507.549C203.576 507.6 200.913 508.441 189.361 513.182C176.716 518.376 175.796 518.64 167.191 519.504C163.252 519.9 157.793 520.788 155.059 521.473C152.324 522.162 150.352 522.48 150.672 522.179C150.992 521.882 153.437 519.771 156.104 517.495C162.379 512.139 168.587 505.935 173.038 500.576C176.288 496.662 176.804 496.236 179.164 495.524C180.58 495.098 184.623 494.406 188.15 493.987C196.468 492.997 199.952 491.917 202.544 489.519C207.43 485.004 207.666 479.621 203.07 477.53C202.005 477.047 200.498 476.646 199.719 476.639C196.677 476.618 191.127 478.915 186.589 482.073L185.432 482.876L186.167 481.721C186.572 481.083 188.059 478.584 189.475 476.166C191.856 472.1 192.247 471.674 194.671 470.482C198.687 468.51 202.123 467.879 212.916 467.136C234.135 465.677 244.696 463.799 252.566 460.094C258.625 457.244 259.492 450.301 254.177 447.17C252.03 445.904 251.713 445.853 246.169 445.89C237.73 445.941 227.176 447.785 220.139 450.439C215.9 452.04 203.893 457.551 201.253 459.112C199.985 459.861 198.889 460.412 198.822 460.337C198.421 459.892 213.951 433.371 219.498 425.026C226.845 413.977 228.403 412.045 231.273 410.434C232.736 409.613 235.592 407.84 237.625 406.493C239.658 405.145 243.398 402.91 245.937 401.522C248.479 400.137 251.699 398.361 253.099 397.581C257.826 394.933 262.401 393.268 269.887 391.478C289.427 386.797 301.535 383.528 304.229 382.201C307.308 380.685 309.772 378.186 311.29 375.049C313.04 371.425 312.342 368.818 308.784 365.68C304.239 361.672 297.597 359.477 289.993 359.477C283.02 359.477 277.666 361.125 272.497 364.856C271.354 365.68 267.237 368.48 263.349 371.077C259.461 373.677 254.164 377.504 251.574 379.587C246.817 383.414 237.689 392.194 234.307 396.196L232.466 398.371L232.672 391.336C232.878 384.319 232.483 380.077 230.659 369.719C228.929 359.895 224.998 352.26 219.95 348.906C216.113 346.363 211.851 347.42 210.161 351.334C208.964 354.104 207.656 364.073 207.966 368.068C208.101 369.868 209.052 374.984 210.074 379.439C212.883 391.681 213.078 393.035 213.051 400.036C213.034 405.115 212.765 407.864 211.8 412.761C211.122 416.199 210.253 420.883 209.865 423.176C209.453 425.617 208.509 428.792 207.582 430.852C206.715 432.78 205.846 435.073 205.65 435.945C205.454 436.819 203.006 441.591 200.215 446.552L195.133 455.572L194.799 451.405C193.886 439.987 192.476 434.182 188.781 426.651C185.662 420.292 181.218 415.597 175.917 413.058C171.51 410.944 168.924 410.562 166.729 411.697C164.803 412.69 163.033 415.871 163.033 418.34C163.033 420.741 164.605 426.563 166.439 430.963C179.552 462.411 180.681 465.69 180.762 472.465C180.81 476.541 180.698 477.101 179.262 480.178C178.409 482.002 177.832 483.69 177.977 483.93C178.325 484.487 173.628 491.397 169.258 496.763C164.989 502.001 155.497 511.406 149.219 516.617C146.579 518.812 144.37 520.555 144.313 520.487C144.259 520.42 144.576 517.971 145.018 515.043C146.478 505.378 147.843 501.271 154.179 487.506C158.019 479.158 159.007 475.193 159.061 467.916L159.108 461.746L157.81 460.624C155.726 458.824 154.425 459.142 151.491 462.168C146.036 467.797 140.25 477.959 137.856 486.118C136.699 490.056 136.605 491.157 136.116 506.249C135.833 515.033 135.586 523.395 135.573 524.83L135.553 527.447L131.857 530.227C127.626 533.411 114.314 543.691 110.045 547.075L107.169 549.355L107.904 547.589C108.308 546.616 109.316 544.468 110.146 542.813C112.236 538.632 115.682 529.774 117.038 525.08C120.154 514.307 119.472 506.121 115.335 504.665C112.361 503.615 109.283 506.972 107.094 513.655C106.552 515.31 105.081 519.339 103.83 522.611C102.58 525.884 100.84 531.537 99.963 535.178C99.0897 538.815 97.3565 544.887 96.109 548.666C94.8681 552.445 93.5733 556.659 93.2361 558.031C92.6528 560.401 92.3999 560.702 87.9929 564.244C78.4405 571.924 64.417 587.192 55.5727 599.545C53.4552 602.504 51.722 604.844 51.722 604.749C51.722 604.317 59.5818 581.225 65.0071 565.72C76.468 532.959 79.506 523.479 85.6057 501.39C93.9139 471.33 96.5304 461.479 102.762 436.829C116.62 381.978 122.224 364.937 134.45 340.447C140.89 327.556 141.848 326.094 144.91 324.483C146.366 323.716 148.912 322.659 150.561 322.136C157.335 319.981 177.471 317.935 200.906 317.016C208.712 316.709 209.673 316.577 212.033 315.49C215.62 313.838 216.841 312.018 216.841 308.317C216.841 304.913 215.954 303.434 212.872 301.694C211.112 300.701 210.131 300.522 205.623 300.37C192.476 299.935 170.064 305.443 152.995 313.305C150.827 314.304 149.253 314.862 149.499 314.537C149.745 314.217 151.883 311.349 154.25 308.165C161.027 299.064 171.615 286.146 172.896 285.42C173.975 284.809 182.92 283.174 185.193 283.174C189.108 283.174 196.222 284.086 201.6 285.275C204.392 285.893 208.445 286.727 210.607 287.125C212.765 287.524 219.137 288.882 224.772 290.141C230.403 291.401 235.814 292.431 236.799 292.431C239.207 292.431 243.647 291.232 245.876 289.982C249.157 288.139 250.344 284.035 248.482 280.972C247.376 279.155 243.276 276.444 239.746 275.201C232.814 272.752 219.016 271.314 206.678 271.746C196.172 272.114 189.458 273.431 182.603 276.471C179.427 277.879 178.908 278.578 189.823 266.731C194.52 261.632 200.859 254.56 203.907 251.017C211.591 242.085 217.573 235.398 221.339 231.521L224.536 228.232L226.947 229.215C228.275 229.755 230.699 231.214 232.338 232.453C235.703 235.003 238.296 236.266 243.63 237.941C247.98 239.309 262.479 241.355 264.398 240.873C265.122 240.69 266.407 239.846 267.257 238.995C268.511 237.739 268.801 237.087 268.801 235.533C268.801 230.143 264.398 227.131 249.659 222.434C243.927 220.606 243.337 220.512 237.74 220.488C234.499 220.475 231.853 220.343 231.853 220.198C231.853 220.049 232.335 219.475 232.925 218.921C233.788 218.107 234.891 217.824 238.583 217.462C248.26 216.52 254.194 217.121 266.262 220.272C273.454 222.15 283.3 222.65 288.83 221.417C293.149 220.455 297.573 218.286 298.831 216.517C301.336 212.991 301.141 210.266 298.14 206.919C292.95 201.137 280.795 198.341 269.263 200.28C261.09 201.654 248.422 205.588 242.814 208.493C241.456 209.195 241.449 209.195 242.127 208.226C242.504 207.686 245.802 204.005 249.457 200.04C253.109 196.075 256.868 191.904 257.809 190.77C258.75 189.635 264.172 183.877 269.86 177.974C275.545 172.071 282.079 165.175 284.382 162.645C288.27 158.38 288.864 157.921 292.657 156.232C306.363 150.136 313.657 147.931 328.139 145.496C341.336 143.277 351.293 140.417 359.494 136.496C368.072 132.396 372.104 125.848 368.911 121.208C367.374 118.976 363.331 116.71 358.866 115.582C355.525 114.737 354.112 114.626 349.398 114.849C341.394 115.224 336.228 116.669 327.69 120.934C312.166 128.685 307.136 132.295 296.922 143.014C282.41 158.251 271.586 169.072 271.994 167.94C272.224 167.302 273.761 163.452 275.413 159.379C281.348 144.746 284.136 134.929 284.224 128.371C284.278 124.278 283.678 122.559 281.668 121.07C280.623 120.296 280.222 120.239 278.876 120.685C276.674 121.414 273.013 125.325 269.981 130.184C266.889 135.142 266.198 137.303 265.551 144.051C264.451 155.503 259.343 171.719 252.775 184.6C248.695 192.603 248.091 193.522 243.465 198.716C240.744 201.769 235.929 207.284 232.76 210.968C229.593 214.653 223.467 221.508 219.151 226.196C214.831 230.886 207.697 238.91 203.296 244.023C192.53 256.536 191.852 257.133 196.684 249.856C201.59 242.46 207.289 232.102 209.261 226.993C210.037 224.98 211.477 220.296 212.461 216.578C213.446 212.863 215.408 206.385 216.828 202.184C222.084 186.619 224.923 174.796 224.923 168.484C224.923 164.871 223.986 160.636 222.819 158.964C221.781 157.478 219.697 156.37 217.944 156.367C214.771 156.36 213.179 158.937 210.192 168.91C207.7 177.221 206.645 180.233 203.07 189.223C199.324 198.652 192.803 219.428 191.903 224.804C191.535 226.999 191.033 234.73 190.784 241.984C190.534 249.238 190.119 255.799 189.86 256.563C189.6 257.326 189.435 258.305 189.489 258.741C189.549 259.207 185.314 264.222 179.103 271.037C157.756 294.461 145.517 310.228 136.281 326.212C134.737 328.883 133.472 330.923 133.472 330.744C133.472 330.562 133.911 329.316 134.45 327.968C137.856 319.421 145.483 293.157 145.483 289.962C145.483 285.612 139.859 288.699 135.212 295.599C131.51 301.097 129.568 305.541 127.288 313.72C124.112 325.125 123.31 330.636 123.043 342.878L122.814 353.29L120.332 359.308C117.011 367.352 114.152 375.376 111.205 384.937C109.859 389.286 108.703 392.66 108.625 392.437C108.477 392.005 110.126 370.871 110.847 363.934C111.71 355.661 111.886 346.211 111.35 336.86C110.328 319.043 109.826 313.919 108.012 302.917L107.111 297.439L110.281 289.503L113.454 281.563L115.227 281.719C117.466 281.911 122.993 281.134 129.548 279.706C132.343 279.095 136.342 278.291 138.439 277.916C144.61 276.812 147.078 274.546 145.695 271.253C144.296 267.92 139.845 267.285 130.07 269.034C126.294 269.71 123.101 270.159 122.976 270.034C122.851 269.909 123.846 268.643 125.191 267.217C127.518 264.752 133.462 260.733 147.03 252.453C153.41 248.562 158.886 243.936 161.169 240.508C165.555 233.926 165.302 223.153 160.71 220.823C158.1 219.502 150.79 220.775 145.227 223.518C141.642 225.287 137.367 229.083 134.669 232.892C132.643 235.756 119.493 260.865 114.394 271.604C112.884 274.785 110.611 280.098 109.347 283.407C108.082 286.713 106.838 289.942 106.589 290.58C106.208 291.543 105.415 288.851 101.824 274.38C95.937 250.67 96.1629 251.987 97.1508 247.144C98.3782 241.133 100.307 235.776 103.665 229.059C105.965 224.463 106.902 223.008 107.577 223.008C108.062 223.008 109.88 222.055 111.613 220.887C113.349 219.718 117.422 217.442 120.669 215.828C127.278 212.535 129.848 210.779 133.304 207.189C139.177 201.09 140.981 197.629 144.286 186.103C147.432 175.134 147.793 173.361 147.793 168.802C147.793 165.283 147.718 165.012 146.393 163.685C145.163 162.453 144.785 162.321 143.274 162.598C137.906 163.581 127.98 172.915 123.815 180.892C122.821 182.8 120.619 187.592 118.926 191.536C116.293 197.669 109.994 209.817 109.633 209.455C109.569 209.391 109.957 206.949 110.493 204.025C111.319 199.52 111.474 196.849 111.501 186.447C111.528 175.937 111.41 173.702 110.675 170.828C109.323 165.533 106.487 162.328 103.763 163.013C102.172 163.412 101.629 165.256 101.103 172.044C100.745 176.66 100.813 179.132 101.45 184.772C102.023 189.827 102.249 195.775 102.269 206.193C102.283 214.126 102.431 220.752 102.596 220.917C102.762 221.083 101.777 223.575 100.411 226.456C97.9162 231.717 95.1446 239.295 95.1311 240.896C95.1277 241.366 94.949 242.031 94.7332 242.372C94.4871 242.76 93.3575 237.894 91.7188 229.414C90.2757 221.944 87.4399 207.476 85.4168 197.264C83.3971 187.048 81.6201 177.467 81.4718 175.975C81.2391 173.624 81.4313 172.601 82.8981 168.4C83.8287 165.728 86.2767 160.247 88.3335 156.225L92.0762 148.91L97.016 146.378C101.298 144.182 102.472 143.308 105.82 139.809C110.932 134.47 116.161 127.425 121.148 119.165C125.808 111.438 127.905 106.234 128.249 101.523C128.458 98.6522 128.361 98.0984 127.39 96.6631C123.333 90.6654 115.976 93.8635 108.774 104.761C105.5 109.716 104.619 111.553 100.472 122.116C98.3917 127.412 93.9105 137.165 89.6283 145.719C85.6158 153.736 81.9641 161.443 81.519 162.844C80.6626 165.529 79.8971 166.799 79.8971 165.533C79.8971 165.127 79.5971 161.909 79.2295 158.383C77.2536 139.427 76.9434 116.98 78.4304 100.83C78.98 94.8496 79.5397 89.2977 79.6746 88.4939C79.8095 87.6901 80.8008 85.934 81.873 84.59C88.3031 76.5288 93.0709 68.6939 94.8647 63.2264C95.2626 62.0173 96.5102 55.8744 97.6398 49.5727C98.7693 43.271 100.732 33.0147 102 26.7772C103.271 20.5397 104.448 13.6672 104.616 11.5059C105.027 6.30852 104.323 2.37081 102.738 0.976062C101.184 -0.391668 100.27 -0.337634 98.095 1.23948ZM101.291 10.3475C101.251 14.5352 100.823 17.4901 98.8705 27.0102C97.5656 33.3727 95.6639 43.5614 94.6456 49.6504C92.6832 61.3622 91.6885 64.6143 88.4009 70.0886C86.5902 73.0976 80.7806 81.044 80.5547 80.8177C80.4737 80.7367 81.0031 75.8871 81.7314 70.0414C82.4597 64.1922 83.1982 57.3265 83.3701 54.7802C83.5455 52.2339 83.9703 48.904 84.3109 47.3742C84.6548 45.8477 85.8822 38.9247 87.0387 31.9881C88.4684 23.4305 89.4934 18.5978 90.2285 16.9464C91.476 14.1502 94.3556 10.1449 97.9061 6.26462C100.118 3.84998 100.425 3.65749 100.856 4.41396C101.123 4.87663 101.318 7.54792 101.291 10.3475ZM40.8782 45.3952C42.6181 49.2823 46.3136 56.9382 49.0987 62.4125C51.8805 67.8868 54.6555 73.8203 55.2658 75.6035C56.9012 80.3855 57.5216 87.3389 56.7899 92.6275C56.4662 94.9746 56.0751 97.9329 55.9234 99.2061L55.6469 101.519L54.6656 99.2061C53.4248 96.2815 51.7794 91.1517 49.6146 83.4721C47.4836 75.9074 42.6619 62.0984 39.8768 55.5839C36.1779 46.9352 34.6066 41.2886 34.6538 36.8005L34.6706 34.8755L36.1947 36.6046C37.0343 37.5569 39.1383 41.5014 40.8782 45.3952ZM124.237 97.5851C125.65 99.0035 125.471 102.718 123.765 107.406C121.034 114.906 111.346 129.685 104.144 137.327C101.2 140.454 94.6793 145.874 94.3118 145.506C94.2275 145.422 95.4987 142.673 97.1374 139.394C98.7761 136.118 101.501 129.897 103.19 125.575C107.698 114.048 109.249 110.634 111.801 106.642C115.342 101.104 120.11 96.7577 122.733 96.6766C123.053 96.6699 123.728 97.0785 124.237 97.5851ZM358.175 118.577C361.584 119.486 364.494 120.904 365.742 122.265C368.169 124.913 365.438 129.276 359.352 132.484C355.683 134.416 344.512 138.286 338.774 139.61C336.487 140.14 330.981 141.123 326.534 141.795C316.361 143.335 308.033 145.466 300.786 148.387C297.674 149.64 295.128 150.592 295.128 150.501C295.128 150.41 297.088 147.87 299.482 144.858C305.473 137.32 310.683 133.494 325.654 125.645C333.48 121.542 337.344 120.002 342.698 118.854C347.392 117.851 354.942 117.716 358.175 118.577ZM280.528 124.7C281.934 128.367 278.913 140.724 272.955 155.671C266.926 170.801 264.28 176.012 260.597 179.997C258.949 181.783 257.519 183.168 257.421 183.07C257.327 182.972 258.052 181.145 259.036 179.004C260.867 175.019 265.935 159.447 267.159 154.054C267.533 152.399 268.177 148.441 268.589 145.26C269.725 136.479 271.6 132.123 276.587 126.676C279.136 123.886 280.043 123.43 280.528 124.7ZM32.1755 139.12C33.3995 141.092 36.8185 145.969 39.7722 149.957C46.2529 158.714 51.7052 167.241 54.1228 172.412C56.9484 178.457 57.8385 182.462 57.9026 189.456C57.9633 196.197 57.4204 201.87 56.7528 201.458C56.51 201.31 55.1714 198.909 53.7789 196.126C48.7042 185.988 43.5285 173.611 39.5564 162.135C38.147 158.052 35.9351 152.446 34.6403 149.674C31.3595 142.629 28.9048 135.54 29.7511 135.54C29.859 135.537 30.9515 137.151 32.1755 139.12ZM220.203 160.737C221.498 162.385 222.33 166.948 222.017 170.676C221.565 176.093 218.534 187.957 214.751 199.125C212.758 205.004 210.273 213.045 209.227 216.993C208.182 220.937 206.55 225.936 205.596 228.1C203.775 232.234 195.888 246.485 194.327 248.464L193.414 249.619L193.717 244.76C194.469 232.737 195.012 226.726 195.599 223.933C196.731 218.526 203.593 197.311 206.854 189.128C208.61 184.728 210.917 178.315 211.979 174.877C213.044 171.443 214.43 166.968 215.057 164.935C216.71 159.585 218.288 158.299 220.203 160.737ZM144.097 168.579C144.097 172.797 139.464 192.546 137.61 196.23C135.856 199.716 132.697 203.822 129.595 206.642C126.732 209.246 124.153 210.752 116.229 214.453C114.239 215.382 111.754 216.905 110.706 217.841L108.801 219.543L109.88 217.689C110.473 216.672 112.732 212.819 114.897 209.128C119.081 201.992 120.68 198.794 125.124 188.642C126.658 185.14 128.667 181.077 129.591 179.618C132.559 174.934 141.565 166.627 143.75 166.563C143.939 166.549 144.097 167.461 144.097 168.579ZM107.199 172.091C108.106 175.688 108.163 176.819 107.934 186.656C107.701 196.649 107.317 200.449 105.628 209.357C105.031 212.522 105.017 212.393 105.041 203.802C105.058 198.966 104.882 189.699 104.653 183.208C104.205 170.48 104.441 166.414 105.564 167.542C105.921 167.897 106.659 169.946 107.199 172.091ZM285.198 204.035C296.666 206.973 300.648 212.498 293.928 216.145C289.703 218.438 286.682 219.067 280.117 219.019C274.638 218.982 273.343 218.793 265.338 216.851C260.51 215.683 255.209 214.484 253.56 214.19C250.465 213.643 240.484 213.501 239.689 213.994C239.443 214.146 239.24 214.149 239.24 214.001C239.24 213.852 240.838 213.001 242.791 212.11C258.814 204.791 275.646 201.587 285.198 204.035ZM41.5694 220.424C46.7823 221.066 53.4349 221.731 56.3516 221.9C59.3154 222.072 62.8727 222.589 64.4238 223.065C65.9478 223.538 67.9575 223.926 68.8881 223.93C71.7744 223.94 72.0407 224.25 70.5875 225.919C69.8727 226.736 68.7094 228.104 67.9979 228.955C66.2547 231.042 63.7797 231.329 59.0457 229.998C57.1305 229.458 52.9865 228.698 49.8338 228.31C46.6811 227.921 40.4635 226.746 36.0194 225.699C28.1596 223.845 27.6673 223.788 18.2363 223.609C12.902 223.507 8.28261 223.339 7.96902 223.234C6.38089 222.704 9.72576 220.208 13.2089 219.327C16.1929 218.567 31.2314 219.151 41.5694 220.424ZM247.882 224.835C254.208 226.783 261.582 229.816 263.74 231.356C266.306 233.186 266.724 236.671 264.509 237.735C263.399 238.265 262.145 238.208 255.732 237.333C243.715 235.695 238.627 233.916 233.545 229.573C232.062 228.306 229.914 226.912 228.771 226.476L226.694 225.679L228.103 224.22L229.512 222.761L235.646 222.859C241.368 222.95 242.194 223.082 247.882 224.835ZM159.624 224.949C160.228 225.929 160.38 232.44 159.843 234.422C159.557 235.483 158.633 237.357 157.787 238.59C155.993 241.197 149.994 246.202 145.297 249.015C139.184 252.672 126.786 260.622 124.972 262.047C123.981 262.827 122.419 264.647 121.509 266.089C118.525 270.807 118.606 270.537 122.399 263.118C128.752 250.69 134.862 239.596 137.306 236.047C141.14 230.481 146.262 226.675 152.001 225.128C155.082 224.298 159.162 224.203 159.624 224.949ZM-52.7679 268.943C-51.6687 270.301 -50.5998 274.948 -48.4925 287.571C-47.056 296.166 -45.6601 302.9 -44.6148 306.294C-43.7146 309.208 -42.4366 314.909 -41.769 318.961C-40.6731 325.604 -40.5754 327.178 -40.7777 334.952C-40.8991 339.694 -41.1924 344.182 -41.4284 344.931C-41.8533 346.282 -41.8702 346.265 -44.0585 342.47C-49.1365 333.645 -53.0208 323.831 -54.7506 315.456C-55.5531 311.582 -57.9673 302.971 -60.4996 294.977C-61.4673 291.921 -62.3912 288.463 -62.5598 287.288C-63.4398 281.033 -57.7549 268.366 -54.0661 268.366C-53.6109 268.366 -53.0242 268.626 -52.7679 268.943ZM143.075 271.773C144.063 272.388 143.676 273.33 142.135 274.063C141.308 274.455 138.341 275.096 135.543 275.488C132.744 275.88 129.531 276.525 128.401 276.923C127.275 277.322 124.405 277.849 122.025 278.098C119.644 278.345 117.143 278.662 116.461 278.808C115.254 279.061 115.261 279.037 116.846 277.615C119.951 274.826 122.008 273.965 128.893 272.57C132.555 271.824 136.281 271.148 137.168 271.064C139.046 270.885 142.263 271.273 143.075 271.773ZM224.461 275.815C235.309 276.872 244.075 279.804 245.529 282.857C246.985 285.916 245.026 287.781 239.284 288.794C236.927 289.209 235.774 289.04 226.535 286.94C220.951 285.67 214.403 284.279 211.992 283.85C209.578 283.421 205.525 282.587 202.983 281.996C196.92 280.591 191.906 279.932 186.629 279.848C182.792 279.79 182.455 279.716 183.48 279.179C187.128 277.261 196.543 275.485 204.601 275.187C209.571 275.002 219.306 275.309 224.461 275.815ZM63.1526 279.706C66.7402 280.554 72.2599 283.306 76.1847 286.203C80.5277 289.412 93.833 302.967 98.2703 308.709C102.755 314.507 105.004 318.225 103.729 317.736C103.281 317.563 102.748 317.421 102.549 317.421C102.347 317.421 100.647 316.047 98.7761 314.365C95.1041 311.066 90.9635 308.857 77.1255 302.822C67.482 298.618 63.5336 296.203 58.2567 291.293C51.8097 285.292 50.2148 283.053 50.9735 281.074C51.7254 279.108 57.7576 278.429 63.1526 279.706ZM139.926 299.648C139.15 302.934 137.613 308.641 136.507 312.332C135.401 316.023 134.18 320.397 133.799 322.052C133.412 323.706 131.415 329.535 129.362 335.009L125.623 344.958L125.882 340.099C126.273 332.716 127.322 325.982 129.062 319.664C131.604 310.451 133.638 304.798 135.725 301.161C137.947 297.277 140.836 293.174 141.133 293.474C141.244 293.586 140.702 296.362 139.926 299.648ZM210.043 304.244C212.721 305.041 213.837 306.284 213.837 308.462C213.837 310.671 213.432 311.36 211.588 312.285C208.981 313.592 207.531 313.815 201.934 313.764C196.003 313.71 164.628 316.054 162.109 316.736C161.728 316.841 159.338 317.236 156.799 317.617C154.256 317.996 150.672 318.823 148.831 319.458C146.99 320.089 145.483 320.518 145.483 320.41C145.483 320.049 151.93 316.949 156.947 314.895C170.546 309.333 183.453 305.97 199.291 303.862C202.703 303.406 207.842 303.589 210.043 304.244ZM-11.1358 312.231C-8.92052 314.568 -6.66139 318.918 -5.77122 322.558C-5.36324 324.237 -4.93164 328.735 -4.77991 332.926C-4.49667 340.663 -4.99233 346.333 -6.99183 358.352C-7.4976 361.391 -8.29673 366.937 -8.77216 370.675C-9.4263 375.856 -9.91521 378.031 -10.8155 379.81C-11.4663 381.097 -12.1845 382.265 -12.4104 382.404C-13.6681 383.187 -14.9561 357.528 -14.9932 330.845C-15.0134 317.931 -14.8718 313.541 -14.4031 312.217C-14.0659 311.262 -13.5669 310.482 -13.2938 310.482C-13.0207 310.482 -12.0496 311.268 -11.1358 312.231ZM-65.5911 338.9C-57.9538 340.23 -55.2125 341.257 -51.0449 344.344C-49.2646 345.661 -47.1875 347.194 -46.4255 347.755C-45.6635 348.312 -44.5575 349.632 -43.9708 350.683L-42.9019 352.597H-46.8268C-48.9847 352.597 -52.1678 352.891 -53.9009 353.249C-55.6306 353.607 -59.3329 354.134 -62.1282 354.418C-64.9234 354.705 -69.7047 355.373 -72.7528 355.904C-82.747 357.653 -90.6034 356.964 -92.8119 354.151C-94.0089 352.625 -94.0123 351.436 -92.8254 348.261C-91.2575 344.06 -87.4204 341.119 -80.6025 338.886C-76.4754 337.536 -73.4137 337.536 -65.5911 338.9ZM217.546 351.446C219.023 352.212 221.973 355.917 223.433 358.845C224.987 361.962 226.292 366.842 227.58 374.349C228.612 380.367 228.811 382.9 228.808 390.083C228.801 401.792 228.4 402.977 220.881 413.531C217.826 417.816 214.649 422.416 213.82 423.753C212.994 425.091 212.272 426.185 212.218 426.185C212.009 426.185 212.606 423.439 213.874 418.546C215.89 410.785 216.608 405.787 216.608 399.573C216.608 393.41 216.045 389.526 213.574 378.628C211.412 369.105 211.22 365.842 212.38 358.386C213.149 353.449 213.496 352.233 214.322 351.561C215.546 350.568 215.83 350.558 217.546 351.446ZM22.7748 356.37C24.3831 359.517 24.8923 364.012 24.0089 367.183C23.6818 368.345 22.2791 371.212 20.8866 373.556C17.8047 378.75 16.2671 382.093 13.6303 389.364C11.3847 395.544 9.70552 399.509 9.44252 399.246C9.20312 399.006 10.417 390.583 11.297 386.382C11.6983 384.474 12.8616 379.949 13.8866 376.325C14.9083 372.701 16.257 367.079 16.8808 363.83C18.4555 355.603 19.2175 353.432 20.4617 353.611C21.1259 353.709 21.8779 354.603 22.7748 356.37ZM296.282 363.479C300.19 364.303 304.698 366.447 306.9 368.527C309.078 370.587 309.108 372.576 307.004 375.352C304.455 378.719 302.57 379.398 280.522 384.893C263.18 389.212 259.475 390.286 255.685 392.086C253.237 393.248 250.664 394.599 249.969 395.088C249.278 395.575 246.008 397.483 242.706 399.323C239.402 401.164 236.3 403.014 235.814 403.436C234.317 404.723 235.403 403.163 238.819 399.11C244.831 391.978 265.075 372.776 268.339 371.107C269.28 370.628 271.897 369.108 274.159 367.734C281.698 363.144 288.506 361.834 296.282 363.479ZM-13.7692 390.492C-12.5925 390.87 -10.9841 392.218 -8.57323 394.838C-6.65802 396.925 -5.08675 398.779 -5.08675 398.955C-5.08675 399.131 -6.3849 398.739 -7.97304 398.087C-10.3502 397.108 -11.8405 396.858 -16.4026 396.676C-19.4508 396.554 -23.7128 396.679 -25.8708 396.952C-32.3582 397.776 -49.8142 400.623 -54.5078 401.626C-56.9221 402.143 -60.0916 402.569 -61.5516 402.572C-63.7905 402.579 -64.2086 402.45 -64.2086 401.758C-64.2086 399.252 -57.8527 393.352 -52.7511 391.12C-50.3031 390.05 -44.6013 389.742 -29.1044 389.85C-20.115 389.911 -14.8988 390.131 -13.7692 390.492ZM34.148 400.427C36.7039 408.191 35.109 416.996 30.0344 423.108C29.0059 424.348 28.1664 425.752 28.1664 426.235C28.1664 427.455 27.4785 427.326 26.3523 425.891C25.4992 424.8 25.3947 424.037 25.3947 418.789C25.3947 409.816 27.7718 401.802 31.0223 399.816C33.1128 398.54 33.5546 398.628 34.148 400.427ZM172.367 415.537C179.451 418.211 184.478 424.662 187.877 435.438C190.177 442.729 190.456 444.769 190.487 454.441L190.514 463.488L187.348 469.017C185.608 472.059 184.047 474.694 183.881 474.876C183.716 475.055 183.564 473.596 183.544 471.634C183.504 467.207 181.588 460.202 177.819 450.713C168.684 427.698 166.442 420.927 166.877 417.671C167.12 415.864 168.125 414.611 169.339 414.611C169.662 414.611 171.025 415.027 172.367 415.537ZM-48.3913 445.157C-42.7064 458.169 -38.4781 466.548 -32.5032 476.629C-29.7147 481.34 -23.1295 493.116 -17.8728 502.801C-10.4547 516.458 -6.59395 524.246 -0.656136 537.511C8.667 558.341 19.4535 585.416 21.4631 593.028C23.493 600.721 24.6428 624.229 23.3918 632.388C21.9453 641.79 21.1158 645.683 20.7078 644.954C19.966 643.627 18.0407 635.603 16.8572 628.896C15.4815 621.132 10.9025 604.172 8.3197 597.293C4.04758 585.909 -6.32758 561.654 -8.64741 557.622C-9.30492 556.477 -11.4798 553.303 -13.4826 550.57C-24.0399 536.154 -30.8038 523.084 -37.7059 503.747C-40.6462 495.507 -44.3417 482.9 -45.7208 476.399C-46.2637 473.853 -47.3056 469.375 -48.0406 466.447C-49.332 461.297 -50.3132 455.451 -52.215 441.52C-53.1523 434.651 -53.2265 433.8 -52.7915 434.975C-52.6499 435.357 -50.6707 439.94 -48.3913 445.157ZM-54.9529 453.448C-54.1875 458.899 -53.0647 465.352 -52.4544 467.794C-51.8474 470.236 -50.8932 474.525 -50.3368 477.324C-49.1264 483.427 -45.596 496.037 -42.9491 503.703C-36.0841 523.618 -28.1771 539.402 -18.473 552.57C-16.4566 555.305 -14.1941 558.588 -13.4455 559.861C-10.8189 564.329 1.47485 593.152 4.44545 601.818C7.03165 609.352 11.7354 626.88 10.9666 626.12C10.8385 625.992 9.74599 623.597 8.53886 620.794C3.46425 609.035 -0.595451 601.585 -9.10934 588.398C-15.2023 578.965 -26.6193 559.375 -30.1463 552.3C-32.9449 546.687 -39.4424 531.878 -41.8567 525.62C-44.3586 519.13 -45.6567 514.047 -47.5955 503.152C-48.6003 497.499 -50.0401 489.975 -50.7954 486.436C-52.5285 478.277 -55.7857 460.233 -56.6152 454.184C-56.9659 451.638 -57.3536 446.225 -57.4784 442.152L-57.7111 434.746L-57.0266 439.143C-56.6523 441.561 -55.7183 447.997 -54.9529 453.448ZM251.601 450.318C253.422 450.885 254.184 452.158 253.786 453.972C252.744 458.727 236.657 462.583 213.375 463.667C204.699 464.069 200.488 464.61 196.981 465.764C194.493 466.585 201.435 462.691 207.14 460.067C220.921 453.732 226.781 451.827 236.576 450.507C245.377 449.321 248.277 449.288 251.601 450.318ZM31.1707 454.701C39.9914 456.028 48.8796 459.051 50.6801 461.337C52.7606 463.981 52.7336 464.002 47.0183 464.326C44.1421 464.485 39.8161 464.599 37.4052 464.572C32.1485 464.518 24.5517 465.265 18.2363 466.45C11.6713 467.683 4.80287 468.085 1.96378 467.402C-0.871941 466.724 -1.58677 465.575 -0.851715 462.897C1.35684 454.87 12.7975 451.942 31.1707 454.701ZM155.43 468.476C154.782 476.041 153.629 479.918 148.939 490.282C147.098 494.355 145.237 498.728 144.808 500.002C143.396 504.186 141.808 511.497 141.352 515.921C141.035 519.001 140.546 521 139.68 522.777C139.009 524.155 138.405 525.219 138.338 525.137C138.274 525.06 138.49 523.223 138.817 521.061C139.144 518.897 139.639 512.129 139.916 506.02C140.516 492.802 140.988 489.164 142.748 484.328C145.415 476.987 153.869 463.552 155.271 464.42C155.585 464.616 155.639 466.031 155.43 468.476ZM201.86 480.813C204.271 482.103 201.57 487.277 197.672 488.84C195.679 489.641 189.374 490.725 184.047 491.184L180.816 491.461L183.355 489.121C190.2 482.812 198.576 479.05 201.86 480.813ZM-37.6722 487.776C-37.8442 488.05 -37.3923 488.935 -36.6708 489.742C-31.1308 495.942 -27.2566 499.39 -27.2566 498.127C-27.2566 497.655 -32.4324 490.769 -34.1048 489.009C-35.7503 487.283 -37.0855 486.821 -37.6722 487.776ZM114.873 509.836C115.45 511.899 115.146 517.86 114.29 521.318C111.748 531.574 102.259 552.273 98.3984 555.977C97.6263 556.717 96.9013 557.227 96.7833 557.112C96.6687 556.994 97.7274 553.9 99.1369 550.236C100.546 546.572 102.529 540.338 103.54 536.383C104.552 532.432 106.376 526.688 107.587 523.625C108.801 520.558 110.159 516.907 110.604 515.506C111.538 512.575 113.582 508.563 114.138 508.563C114.347 508.563 114.678 509.137 114.873 509.836ZM209.868 511.325C212.137 512.19 212.019 515.313 209.612 518.059C207.08 520.95 202.544 523.256 188.204 528.947C176.521 533.584 172.687 534.661 165.953 535.211C162.366 535.505 162.288 535.488 154.863 532.706C150.433 531.044 146.218 529.774 144.515 529.582C141.905 529.285 141.72 529.193 142.522 528.606C143.622 527.799 151.033 525.485 155.642 524.513C157.547 524.107 162.42 523.483 166.473 523.121C175.877 522.28 178.84 521.487 190.844 516.587C203.768 511.308 207.279 510.339 209.868 511.325ZM-21.9291 515.479C-22.2663 516.026 -20.4151 518.238 -14.8516 523.928C-12.4374 526.397 -10.2962 528.312 -10.0906 528.184C-9.56454 527.859 -13.7591 522.402 -17.6165 518.4C-20.84 515.05 -21.4233 514.658 -21.9291 515.479ZM274.22 521.176C268.16 526.961 259.512 537.457 254.191 545.491C248.594 553.934 247.339 555.467 236.887 566.646C216.062 588.914 201.405 601.849 185.665 611.845C171.092 621.101 167.916 622.675 148.946 630.037C134.228 635.748 128.475 637.72 119.26 640.229C107.978 643.299 78.835 653.684 66.1569 659.151C64.0596 660.056 62.3467 660.691 62.3467 660.57C62.3467 660.178 71.127 654.582 77.5874 650.854C86.1047 645.943 92.5618 642.931 101.834 639.547C106.154 637.974 111.869 635.789 114.536 634.694C123.225 631.125 142.354 622.412 147.793 619.545C162.794 611.629 180.56 600.586 191.9 592.122C200.022 586.064 223.207 566.369 230.005 559.753C233.434 556.413 240.501 549.895 245.707 545.268C250.914 540.642 258.079 534.212 261.629 530.983C267.463 525.678 277.946 516.924 278.485 516.904C278.603 516.897 276.685 518.822 274.22 521.176ZM282.599 520.713C282.049 521.794 279.632 525.988 277.224 530.031C269.803 542.499 265.611 550.827 251.814 580.532C245.556 594 242.629 599.285 237.912 605.628C233.943 610.967 223.743 621.125 219.38 624.09C215.223 626.913 191.923 639.75 185.432 642.789C175.877 647.267 169.018 649.76 161.034 651.651C137.164 657.314 126.496 659.357 116.617 660.154C112.041 660.522 106.015 661.151 103.22 661.546C95.91 662.583 75.8577 666.679 71.6766 667.989C66.9358 669.475 61.6353 670.775 56.5707 671.697C54.2846 672.116 51.894 672.562 51.2601 672.69C49.6517 673.021 54.1464 670.083 59.1165 667.557C63.3987 665.382 75.6924 660.104 82.6688 657.446C90.805 654.346 113.346 646.636 117.999 645.359C129.483 642.212 135.728 640.131 148.797 635.103C164.217 629.173 169.659 626.745 176.922 622.55C184.222 618.339 197.402 609.575 201.83 605.992C212.872 597.056 235.46 575.183 247.751 561.522C250.057 558.959 253.965 553.856 256.44 550.185C262.034 541.874 272.052 529.744 278.478 523.496C281.156 520.892 283.405 518.755 283.475 518.751C283.543 518.748 283.148 519.629 282.599 520.713ZM-10.1681 539.355C-10.1681 540.003 -1.3204 549.645 0.567833 551.053C3.19787 553.016 -1.53956 546.16 -5.80831 541.824C-8.89692 538.69 -10.1681 537.97 -10.1681 539.355ZM5.53455 569.367C5.53455 569.715 7.00468 571.843 8.79849 574.092C10.5957 576.341 12.2411 578.499 12.4603 578.888C12.6761 579.279 13.0234 579.431 13.2257 579.229C13.745 578.709 11.2734 574.146 8.87605 571.198C6.94061 568.814 5.53455 568.044 5.53455 569.367ZM122.945 570.779C127.696 571.637 132.046 573.174 132.41 574.126C132.919 575.453 131.679 576.966 129.001 578.283C126.358 579.583 126.169 579.607 117.014 579.755C107.806 579.904 107.634 579.887 99.4909 578.192C90.0228 576.216 86.8634 576.206 81.5999 578.131C78.7237 579.181 78.5214 579.205 79.2666 578.381C82.3485 574.967 91.9009 571.279 100.681 570.11C105.017 569.536 118.252 569.931 122.945 570.779ZM239.355 579.026C239.004 579.462 227.236 602.561 226.387 604.483C225.989 605.374 227.412 604.662 229.128 603.112C231.846 600.653 234.331 596.776 237.649 589.833C240.798 583.237 241.83 580.306 241.398 579.178C241.061 578.303 239.996 578.226 239.355 579.026ZM213.594 609.812C212.647 610.491 201.776 624.83 202.022 625.076C202.919 625.978 212.309 616.782 214.268 613.084C215.604 610.558 215.212 608.65 213.594 609.812ZM171.642 637.815C166.692 641.675 162.747 645.005 162.875 645.214C163.175 645.7 170.023 642.053 174.855 638.831C178.685 636.275 181.97 633.1 181.97 631.952C181.97 630.152 180.122 631.199 171.642 637.815ZM140.995 645.761C132.127 653.292 131.368 654.275 136.375 651.742C141.511 649.142 146.869 644.755 146.869 643.147C146.869 641.519 145.028 642.34 140.995 645.761Z" fill="white"/>
</g>
<defs>
<clipPath id="clip0_1_8217">
<rect width="467" height="720" fill="white" transform="translate(-96.9998)"/>
</clipPath>
</defs>
</svg>
